<svg version="1.1" xmlns="http://www.w3.org/2000/svg" width="512px" height="512px" viewBox="0 0 512 512" preserveAspectRatio="xMidYMid meet">
 <g fill="#ead77c">
  <path d="M63.7 449.2 c-4 -4.4 -0.6 -12.3 13.2 -31.1 20.7 -28.1 36.6 -58.8 49.2 -95.1 3.2 -9.2 5.2 -13.6 6.3 -13.8 3.1 -0.6 17.5 8.4 28.8 18 6 5.1 8.8 6 8.8 2.9 0 -3.6 -16 -16.7 -30.1 -24.5 l-6.7 -3.6 5 -12.8 c12.2 -31.7 26.9 -56.2 43.1 -72 l4.4 -4.4 9.4 4.8 c11.8 5.9 21.1 12.2 31.8 21.4 7.6 6.6 8.4 7.1 9.9 5.6 1.5 -1.5 1.3 -1.9 -2.3 -5.7 -8.7 -9 -27.7 -22.6 -38.3 -27.3 -2.3 -1 -4.2 -2.3 -4.2 -2.8 0 -1.1 8.2 -6.2 16.9 -10.4 25.7 -12.4 51.3 -8.9 74.7 10.2 3.8 3.1 4.1 3.2 5.7 1.6 1.6 -1.5 1.9 -1.5 4.4 1 2.3 2.4 2.5 2.9 1.2 4.5 -1.3 1.7 -1.3 1.7 0.4 0.4 1.6 -1.3 2.1 -1.2 4.3 1.1 2.2 2.2 2.4 2.8 1.4 4.5 -1.1 1.7 -0.5 2.9 4.5 9.4 7.2 9.3 12.9 20.8 15.1 30.7 6.6 29.6 -12.7 65.1 -48.3 89 -15.7 10.6 -34 18.8 -71.8 32.2 -48.2 17.1 -76.9 31.4 -104.4 52 -19.7 14.8 -28.4 18.6 -32.4 14.2z m183.9 -123.9 c1.1 -1.1 1.3 -1.8 0.5 -2.1 -0.6 -0.2 -1.1 -1 -1.1 -1.8 0 -0.8 -0.4 -1.4 -1 -1.4 -0.5 0 -1 -0.4 -1 -1 0 -2.8 -27.5 -31 -30.3 -31 -4.3 0 -2.4 3.2 8.5 14.1 6.2 6.3 12.2 12.7 13.3 14.3 1.1 1.5 2.5 3.3 3 4 0.6 0.6 1.8 2.3 2.8 3.9 2 3.2 2.9 3.3 5.3 1z"/>
 </g>
 <g fill="#4ea23f">
  <path d="M296.7 220.2 c-1.9 -2 -2.4 -3.2 -1.7 -4 0.7 -0.9 0.7 -0.9 -0.2 -0.2 -0.7 0.6 -1.6 0.6 -2.4 -0.1 -0.9 -0.8 -0.9 -1.6 0.2 -3.7 0.7 -1.5 33.2 -34.5 72.1 -73.4 69.7 -69.6 76.1 -75.6 75.7 -69.6 -0.1 1 0.3 1.5 0.8 1.2 1.5 -1 4.5 2.4 6.8 7.9 4.4 10.2 1 23.7 -8.9 34.9 -2.3 2.5 -4.1 4.9 -4.1 5.4 0 0.4 1.1 2.2 2.5 4 9 11.7 8.4 24.2 -1.4 32.5 -4.3 3.8 -9.8 5.9 -15 5.9 -1.7 0 -3.1 0.2 -3.1 0.5 0 0.3 1.4 2.4 3 4.7 6.1 8.4 6.1 16.7 -0.3 25.5 -2.3 3.2 -5 5.3 -10.5 8 -7.1 3.6 -7.7 3.7 -21 4.1 -15.4 0.5 -30.4 -1.6 -49.8 -6.8 l-10.9 -2.9 -14.5 14.5 -14.6 14.5 -2.7 -2.9z"/>
 </g>
 <g fill="#69b54b">
  <path d="M290.5 214 l-2.5 -2.5 14.5 -14.5 14.5 -14.5 -3.4 -13.6 c-8.7 -34.2 -8.7 -59 -0.3 -71.6 8.1 -12 21.6 -14.9 32 -6.9 l4.4 3.4 0.6 -5.5 c0.8 -7.4 4.8 -13.9 11.2 -17.8 8.5 -5.2 18.6 -3.9 28 3.8 l2.9 2.4 6.1 -5 c11.9 -10 24.1 -13.1 34.2 -8.7 10.6 4.5 16.9 -3 -65.7 79.6 l-74 74 -2.5 -2.6z"/>
 </g>
 <g fill="#ecb24c">
  <path d="M161.3 332.7 c-6.3 -5.7 -17.4 -13.7 -24.3 -17.5 -3.6 -1.9 -6.6 -3.6 -6.7 -3.7 -0.8 -0.5 4 -12.5 4.9 -12.5 1.7 0 13.6 6.8 20.8 11.9 7.8 5.5 18 14.7 17.2 15.5 -0.3 0.3 0 0.6 0.6 0.6 0.7 0 1.2 0.9 1.2 2 0 1.1 -0.4 2 -1 2 -0.5 0 -0.7 0.6 -0.4 1.4 0.7 1.7 0 2.1 -4.8 3 -3.3 0.6 -4.2 0.3 -7.5 -2.7z"/>
  <path d="M241.4 329.2 c-1.6 -1.5 -3.6 -3.8 -4.4 -5.1 -3.3 -5 -6 -8 -17.7 -19.9 -11.9 -12 -12.1 -12.3 -11.1 -15.3 0.6 -1.7 1.7 -3.3 2.4 -3.6 0.8 -0.3 1.1 -0.9 0.8 -1.4 -0.7 -1.1 4.5 -0.6 6.8 0.7 2.3 1.3 19.4 18.1 23.8 23.4 1.9 2.4 4.1 4.9 4.8 5.6 0.6 0.7 1.2 1.7 1.2 2.3 0 0.6 0.5 1.1 1 1.1 0.6 0 1 0.5 1 1.1 0 0.6 0.7 1.7 1.5 2.5 1.7 1.8 2 6.4 0.4 6.4 -0.5 0 -0.7 0.5 -0.4 1 0.3 0.6 -0.1 1 -1 1 -0.9 0 -1.4 0.4 -1.1 0.9 0.6 0.9 -1.6 2.1 -3.9 2.1 -0.7 0 -2.6 -1.3 -4.1 -2.8z"/>
  <path d="M233.5 249.8 c-1.1 -0.6 -5.6 -4.3 -10 -8.1 -10.3 -8.9 -19.7 -15.3 -31.3 -21.1 -5 -2.5 -9.2 -4.8 -9.2 -5.1 0 -0.3 2.5 -2.5 5.7 -4.9 l5.6 -4.5 6.1 3.1 c7.3 3.7 18.4 10.7 24.6 15.7 7 5.5 16.8 15 16.2 15.6 -0.3 0.3 0 0.5 0.6 0.5 0.7 0 1.2 0.9 1.2 2 0 1.1 -0.5 2 -1.1 2 -0.5 0 -0.8 0.4 -0.5 0.8 0.3 0.5 -0.6 1.5 -1.9 2.2 -1.4 0.7 -2.5 1.7 -2.5 2.2 0 1.1 -1.1 1 -3.5 -0.4z"/>
 </g>
</svg>